# xmcd
#
# Track frame offsets:
#	150
#	17625
#	30395
#	46777
#	63331
#	79737
#	95108
#	115945
#	133335
#	156140
#
# Disc length: 2288 seconds
#
# Revision: 2
# Processed by: cddbd v1.5.1PL2 Copyright (c) Steve Scherf et al.
# Submitted via: audiograbber 1.83.01
#
DISCID=7b08ee0a
DTITLE=Cat Stevens - Sad Lisa
DYEAR=1900
DGENRE=Blues
TTITLE0=Daytime
TTITLE1=New York Times
TTITLE2=Sad Lisa
TTITLE3=Hard-headed Woman
TTITLE4=Father And Son
TTITLE5=Into White
TTITLE6=Tea For The Tillerman
TTITLE7=Where Do The Children Play
TTITLE8=On The Road To Find Out
TTITLE9=Miles From Nowhere
EXTD=
EXTT0=
EXTT1=
EXTT2=
EXTT3=
EXTT4=
EXTT5=
EXTT6=
EXTT7=
EXTT8=
EXTT9=
PLAYORDER=
